<svg xmlns="http://www.w3.org/2000/svg" width="560" height="1120" viewBox="0 0 560 1120" fill="none">
  <defs>
    <linearGradient id="edge" x1="12" y1="6" x2="548" y2="1094" gradientUnits="userSpaceOnUse">
      <stop stop-color="#95a2b5"/>
      <stop offset=".25" stop-color="#334155"/>
      <stop offset=".65" stop-color="#68778c"/>
      <stop offset="1" stop-color="#aab3c1"/>
    </linearGradient>
    <mask id="frame" maskUnits="userSpaceOnUse" x="0" y="0" width="560" height="1120">
      <rect width="560" height="1120" fill="white"/>
      <rect x="28" y="24" width="504" height="1052" rx="55" fill="black"/>
    </mask>
    <filter id="shadow" x="64" y="1094" width="432" height="26" filterUnits="userSpaceOnUse">
      <feGaussianBlur stdDeviation="4"/>
    </filter>
  </defs>
  <ellipse cx="280" cy="1106" rx="204" ry="4" fill="#14213d" opacity=".12" filter="url(#shadow)"/>
  <rect x="8" y="176" width="6" height="58" rx="3" fill="#536176"/>
  <rect x="8" y="262" width="6" height="94" rx="3" fill="#536176"/>
  <rect x="546" y="284" width="6" height="130" rx="3" fill="#536176"/>
  <g mask="url(#frame)">
    <rect x="12" y="6" width="536" height="1088" rx="72" fill="url(#edge)"/>
    <rect x="16" y="10" width="528" height="1080" rx="69" fill="#172131" stroke="#bbc5d3" stroke-opacity=".45"/>
    <rect x="22" y="16" width="516" height="1068" rx="62" fill="#080d16"/>
  </g>
  <rect x="220" y="40" width="120" height="36" rx="18" fill="#080d16"/>
  <circle cx="321" cy="58" r="9" fill="#111c2d"/>
  <circle cx="321" cy="58" r="5" fill="#223f62"/>
  <circle cx="319" cy="56" r="1.5" fill="#9ec5e5" opacity=".7"/>
</svg>
